<?xml version="1.0" standalone="no"?>
<!DOCTYPE svg PUBLIC "-//W3C//DTD SVG 20010904//EN"
 "http://www.w3.org/TR/2001/REC-SVG-20010904/DTD/svg10.dtd">
<svg version="1.0" xmlns="http://www.w3.org/2000/svg"
 width="102.000000pt" height="102.000000pt" viewBox="0 0 102.000000 102.000000"
 preserveAspectRatio="xMidYMid meet">
<metadata>
Created by potrace 1.14, written by Peter Selinger 2001-2017
</metadata>
<g transform="translate(0.000000,102.000000) scale(0.100000,-0.100000)"
fill="#000000" stroke="none">
<path d="M60 1010 c0 -5 -9 -10 -20 -10 -13 0 -20 -7 -20 -20 0 -11 -4 -20
-10 -20 -6 0 -10 -28 -10 -65 l0 -65 235 0 235 0 0 -85 0 -85 -45 0 c-38 0
-45 3 -45 20 0 11 -4 20 -10 20 -5 0 -10 9 -10 20 0 19 -7 20 -95 20 l-95 0 0
-85 0 -85 101 0 c107 0 129 -8 129 -50 0 -42 -22 -50 -129 -50 l-101 0 0 -95
0 -95 105 0 105 0 0 26 c0 36 22 54 69 54 l41 0 0 -85 0 -85 -245 0 -245 0 0
-65 c0 -37 4 -65 10 -65 6 0 10 -9 10 -20 0 -13 7 -20 20 -20 11 0 20 -4 20
-10 0 -7 157 -10 450 -10 293 0 450 3 450 10 0 6 9 10 20 10 13 0 20 7 20 20
0 11 5 20 10 20 6 0 10 32 10 75 0 68 -2 75 -20 75 -11 0 -20 -4 -20 -10 0 -5
-16 -10 -35 -10 -19 0 -35 -4 -35 -10 0 -6 -32 -10 -75 -10 -43 0 -75 4 -75
10 0 6 -13 10 -30 10 -16 0 -30 5 -30 10 0 6 -7 10 -16 10 -15 0 -44 23 -44
35 0 10 -28 35 -39 35 -6 0 -11 9 -11 20 0 11 -4 20 -10 20 -5 0 -10 9 -10 20
0 11 -4 20 -10 20 -6 0 -10 28 -10 65 0 37 -4 65 -10 65 -5 0 -10 9 -10 20 0
11 5 20 10 20 6 0 10 28 10 65 0 37 4 65 10 65 6 0 10 9 10 20 0 11 5 20 10
20 6 0 10 7 10 15 0 8 7 15 15 15 8 0 15 7 15 16 0 19 24 44 42 44 8 0 20 9
28 20 8 12 26 20 42 20 15 0 28 5 28 10 0 6 28 10 65 10 37 0 65 -4 65 -10 0
-5 16 -10 35 -10 19 0 35 -4 35 -10 0 -5 9 -10 20 -10 11 0 20 -4 20 -10 0 -5
5 -10 10 -10 6 0 10 35 10 85 0 50 -4 85 -10 85 -5 0 -10 9 -10 20 0 13 -7 20
-20 20 -11 0 -20 5 -20 10 0 7 -157 10 -450 10 -293 0 -450 -3 -450 -10z"/>
<path d="M0 510 c0 -223 1 -230 20 -230 19 0 20 7 20 230 0 223 -1 230 -20
230 -19 0 -20 -7 -20 -230z"/>
<path d="M760 730 c0 -5 -7 -10 -16 -10 -24 0 -64 -53 -64 -85 0 -8 -4 -15
-10 -15 -6 0 -10 -43 -10 -110 0 -67 4 -110 10 -110 6 0 10 -11 10 -25 0 -29
40 -75 65 -75 8 0 15 -4 15 -10 0 -6 30 -10 71 -10 82 0 99 11 99 64 0 36 0
36 45 36 l45 0 0 120 0 120 -45 0 -45 0 0 46 c0 63 -14 74 -99 74 -41 0 -71
-4 -71 -10z"/>
</g>
</svg>
